<svg xmlns="http://www.w3.org/2000/svg" data-name="Layer 1" fill="#00fe90" viewBox="0 0 64 64"><path fill="#00fe90"  d="M52.22 17.673a1 1 0 001.339.456l4.514-2.22a1 1 0 00.456-1.339L52.124 1.558A1 1 0 0050.786 1.1L46.274 3.321a1 1 0 00-.456 1.339zm2.723-4.714l.859 1.746-1.659.816-.859-1.746zM23.017 14.1c1.5.684 4.959-.06 7.223-4.064l8.6 5.4a5.576 5.576 0 002.535-2.506l1.393.557a6.851 6.851 0 01-2.5 2.844l6.636 4.153a9.52 9.52 0 013.415-3.271L45.047 6.49c-1.422.44-4.162.506-9.218-1.547-7.5-3.047-12.042 4.417-13.3 7.921A.987.987 0 0023.017 14.1zM6 44H9V63h6V44H49V63h6V44h3a1 1 0 001-1V38a1 1 0 00-1-1H6a1 1 0 00-1 1v5A1 1 0 006 44z"/><path d="M40 54a8 8 0 10-8 8A8 8 0 0040 54zm-8.5-1h1a2.5 2.5 0 01.5 4.949V59H31V57.949A2.5 2.5 0 0129 55.5h2a.5.5 0 00.5.5h1a.5.5 0 000-1h-1a2.5 2.5 0 01-.5-4.949V49h2v1.051A2.5 2.5 0 0135 52.5H33a.5.5 0 00-.5-.5h-1a.5.5 0 000 1zM26.37 30.932a1.9 1.9 0 002.635-.487l.537-.781a1.895 1.895 0 10-3.122-2.148l.537-.78a1.894 1.894 0 10-3.121-2.148 1.895 1.895 0 00-3.122-2.148l-.537.78a1.894 1.894 0 00-3.122-2.147l-1.074 1.56A1.9 1.9 0 0019.1 24.782a1.894 1.894 0 003.122 2.147l.537-.78A1.894 1.894 0 1025.883 28.3 1.9 1.9 0 0026.37 30.932zM6.211 16.984l4.2 2.409a1 1 0 001.364-.367L19.031 6.468A1 1 0 0018.662 5.1l-4.2-2.411a1 1 0 00-1.363.368L5.842 15.617A1 1 0 006.211 16.984z"/><path d="M15.343,20.914l.476-.692a3.4,3.4,0,0,1,5.6.009c.079-.02.159-.038.239-.053a3.387,3.387,0,0,1,3.774,2.091,3.384,3.384,0,0,1,3.3,2.777c.015.08.027.161.036.241a3.383,3.383,0,0,1,2.124,5.02l2.078,1.247a1.9,1.9,0,0,0,2.6-.64,1.972,1.972,0,0,0,.28-.98,1.92,1.92,0,0,0-.9-1.61l1.6.96a1.891,1.891,0,1,0,1.95-3.24l1.63.97a1.893,1.893,0,0,0,1.96-3.24l2.42,1.46a1.9,1.9,0,0,0,2.61-.64,1.907,1.907,0,0,0-.65-2.61l-15.778-9.89c-2.705,3.639-6.421,4.231-8.3,3.374a2.5,2.5,0,0,1-1.282-3.113,18.013,18.013,0,0,1,1.665-3.361,11.4,11.4,0,0,1-2.652-1.423L13.291,19.4Z"/></svg>