<?xml version="1.0" encoding="iso-8859-1"?>
<!-- Generator: Adobe Illustrator 19.0.0, SVG Export Plug-In . SVG Version: 6.00 Build 0)  -->
<svg version="1.1" id="Layer_1"  fill="#00fe90" xmlns="http://www.w3.org/2000/svg" xmlns:xlink="http://www.w3.org/1999/xlink" x="0px" y="0px"
	 viewBox="0 0 512 512" style="enable-background:new 0 0 512 512;" xml:space="preserve">
<g>
	<g>
		<path d="M463.715,153.674c11.946-10.508,19.506-25.889,19.506-43.013c0-31.592-25.702-57.295-57.295-57.295
			c-21.024,0-39.429,11.391-49.396,28.316l-87.552-20.812V41.355c0-18.522-15.016-33.538-33.538-33.538
			s-33.538,15.016-33.538,33.538v19.563L135.425,81.61c-9.978-16.885-28.36-28.243-49.354-28.243
			c-31.593,0-57.295,25.703-57.295,57.295c0,17.122,7.56,32.504,19.506,43.013C5.067,249.392-0.003,256.978,0,264.832
			c0.019,47.26,38.755,85.635,86.071,85.635s85.827-38.375,86.071-85.635c0.151-5.429-4.897-15.052-48.282-111.16
			c11.11-9.773,18.416-23.764,19.384-39.45l78.658-18.821v342.824h-43.6c-9.261,0-16.769,7.508-16.769,16.769
			c0,7.151,4.484,13.24,10.788,15.651h-18.055c-9.261,0-16.769,7.508-16.769,16.769s7.508,16.769,16.769,16.769h202.348
			c9.261,0,16.769-7.508,16.769-16.769s-7.508-16.769-16.769-16.769h-18.055c6.303-2.411,10.788-8.5,10.788-15.651
			c0-9.261-7.508-16.769-16.769-16.769h-43.6V95.344l79.782,18.965c0.989,15.651,8.287,29.61,19.377,39.365
			c-42.12,93.312-48.428,105.911-48.282,111.16c0.243,47.26,38.755,85.635,86.071,85.635s85.827-38.375,86.071-85.635
			C512.155,259.138,507.541,250.7,463.715,153.674z M129.427,247.616H42.714l36.131-80.132c2.369,0.3,4.777,0.472,7.225,0.472
			s4.856-0.172,7.225-0.472L129.427,247.616z M382.569,247.616l36.131-80.132c2.369,0.3,4.777,0.472,7.225,0.472
			s4.856-0.172,7.225-0.472l36.131,80.132H382.569z"/>
	</g>
</g>
<g>
</g>
<g>
</g>
<g>
</g>
<g>
</g>
<g>
</g>
<g>
</g>
<g>
</g>
<g>
</g>
<g>
</g>
<g>
</g>
<g>
</g>
<g>
</g>
<g>
</g>
<g>
</g>
<g>
</g>
</svg>
