<svg xmlns="http://www.w3.org/2000/svg" xmlns:xlink="http://www.w3.org/1999/xlink" viewBox="0 0 64.29 98.36"><defs><style>.cls-1,.cls-2,.cls-3,.cls-4{fill-rule:evenodd;}.cls-1{fill:url(#Gradiente_sem_nome_33);}.cls-2{fill:#1377c0;}.cls-3{fill:url(#Gradiente_sem_nome_35);}.cls-4{fill:url(#Gradiente_sem_nome_33-2);}</style><linearGradient id="Gradiente_sem_nome_33" x1="23.69" y1="30.76" x2="0.27" y2="75.47" gradientUnits="userSpaceOnUse"><stop offset="0" stop-color="#00a1ff"/><stop offset="0.16" stop-color="#00a6f9"/><stop offset="0.37" stop-color="#00b4e8"/><stop offset="0.61" stop-color="#0cc"/><stop offset="0.87" stop-color="#00eca6"/><stop offset="1" stop-color="#00ff8f"/></linearGradient><linearGradient id="Gradiente_sem_nome_35" x1="76.46" y1="12.59" x2="37.69" y2="73.98" gradientUnits="userSpaceOnUse"><stop offset="0" stop-color="#2d388a"/><stop offset="0.16" stop-color="#2b3e8f"/><stop offset="0.36" stop-color="#244f9e"/><stop offset="0.59" stop-color="#1a6bb5"/><stop offset="0.84" stop-color="#0b91d6"/><stop offset="1" stop-color="#00aeef"/></linearGradient><linearGradient id="Gradiente_sem_nome_33-2" x1="73.68" y1="52.17" x2="46.54" y2="8.23" xlink:href="#Gradiente_sem_nome_33"/></defs><g id="Calque_2" data-name="Calque 2"><g id="OBJECTS"><path class="cls-1" d="M32.05,36.77S-2.12,40.39,10.23,78c0,0-14.33-13.18-9.07-26S21.75,33.85,32.05,36.77Z"/><path class="cls-2" d="M50.2,20.16c2.38.57,3.59,4.09,2.68,7.85s-3.57,6.35-6,5.78-3.58-4.09-2.68-7.85S47.82,19.59,50.2,20.16Z"/><path class="cls-3" d="M42.89,98.36s-11.33-15.12-2.8-31.13S61.44,33.86,64,21.39l-5.08.95s1.6,11-11.74,17.67S4.66,70.25,42.89,98.36Z"/><path class="cls-4" d="M30.46,7.8S70.18,6.79,55,41.48c0,0,15.83-19.85,6.28-35.06S30.46,7.8,30.46,7.8Z"/></g></g></svg>